<?xml version="1.0" encoding="UTF-8"?>
<svg width="94px" height="94px" viewBox="0 0 94 94" version="1.1" xmlns="http://www.w3.org/2000/svg" xmlns:xlink="http://www.w3.org/1999/xlink">
    <!-- Generator: Sketch 57.1 (83088) - https://sketch.com -->
    <title>np_sun_1931491_000000</title>
    <desc>Created with Sketch.</desc>
    <g stroke="none" stroke-width="1" fill="none" fill-rule="evenodd">
        <g fill="#FFFFFF" fill-rule="nonzero">
            <path d="M46.953,0.082 C45.2303,0.109344 43.8514,1.5234 43.8749,3.25 L43.8749,15.75 C43.863181,16.58594 44.1874,17.3945 44.77334,17.9883 C45.36318,18.58596 46.16394,18.91799 46.99994,18.91799 C47.83594,18.91799 48.63664,18.58596 49.22654,17.9883 C49.81248,17.39455 50.1367,16.586 50.12498,15.75 L50.12498,3.25 C50.136699,2.40625 49.80467,1.5938 49.20701,0.9961 C48.61326,0.39844 47.79681,0.07032 46.95311,0.08204 L46.953,0.082 Z M16.031,12.909937 C14.7576,12.909937 13.6169,13.67953 13.1365,14.8592 C12.65994,16.0389 12.94509,17.3865 13.85525,18.2733 L22.70685,27.1249 C23.28888,27.73428 24.08965,28.07802 24.92955,28.08584 C25.76939,28.097558 26.57795,27.76553 27.17175,27.17178 C27.76555,26.57803 28.09753,25.76948 28.08581,24.92958 C28.077997,24.08974 27.73425,23.28898 27.12878,22.70688 L18.27718,13.85528 L18.273274,13.85528 C17.683434,13.24981 16.874874,12.90606 16.031074,12.909937 L16.031,12.909937 Z M77.875,12.91 C77.0625,12.933438 76.293,13.27328 75.7266,13.85531 L66.875,22.70691 C66.26562,23.28894 65.92188,24.08971 65.91406,24.92961 C65.902342,25.76945 66.23437,26.57801 66.82812,27.17181 C67.42187,27.76561 68.23042,28.09759 69.07032,28.08587 C69.91016,28.078057 70.71092,27.73431 71.29302,27.12493 L80.14462,18.27333 C81.0704,17.37489 81.34772,15.99993 80.84384,14.81633 C80.34384,13.62883 79.16414,12.87103 77.87504,12.91013 L77.875,12.91 Z M47,22.0077 C33.23,22.0077 21.992,33.2307 21.992,46.9997 C21.992,60.7687 33.226,72.0077 47,72.0077 C60.77,72.0077 71.992,60.7737 71.992,46.9997 C71.992,33.2297 60.769,22.0077 47,22.0077 Z M47,28.246 C57.391,28.246 65.758,36.6093 65.758,47.004 C65.758,57.391 57.3908,65.754 47,65.754 C36.6092,65.754 28.246,57.3907 28.246,47 C28.246,36.6093 36.6093,28.242 47,28.242 L47,28.246 Z M3.25,43.875 C2.41406,43.863281 1.6055,44.1875 1.0117,44.77344 C0.41404,45.36328 0.08201,46.16404 0.08201,47.00004 C0.08201,47.83604 0.41404,48.63674 1.0117,49.22664 C1.60545,49.81258 2.414,50.1368 3.25,50.12508 L15.75,50.12508 C16.58594,50.136799 17.3945,49.81258 17.9883,49.22664 C18.58596,48.6368 18.91799,47.83604 18.91799,47.00004 C18.91799,46.16404 18.58596,45.36334 17.9883,44.77344 C17.39455,44.1875 16.586,43.86328 15.75,43.875 L3.25,43.875 Z M78.25,43.875 C77.41406,43.863281 76.6055,44.1875 76.0117,44.77344 C75.41404,45.36328 75.08201,46.16404 75.08201,47.00004 C75.08201,47.83604 75.41404,48.63674 76.0117,49.22664 C76.60545,49.81258 77.414,50.1368 78.25,50.12508 L90.75,50.12508 C91.58594,50.136799 92.3945,49.81258 92.9883,49.22664 C93.58596,48.6368 93.91799,47.83604 93.91799,47.00004 C93.91799,46.16404 93.58596,45.36334 92.9883,44.77344 C92.39455,44.1875 91.586,43.86328 90.75,43.875 L78.25,43.875 Z M24.855,65.926 C24.0425,65.953344 23.273,66.28928 22.7066,66.87131 L13.855,75.72291 L13.855,75.726816 C13.24953,76.308846 12.90188,77.109616 12.8939236,77.949516 C12.886248,78.789356 13.21437,79.597916 13.80812,80.191716 C14.40187,80.785516 15.21042,81.113596 16.05032,81.1059127 C16.89016,81.097963 17.69092,80.750306 18.27302,80.144836 L27.12462,71.293236 L27.128526,71.293236 C28.050406,70.394796 28.327726,69.019836 27.827746,67.832336 C27.323836,66.644836 26.144146,65.890936 24.855046,65.926136 L24.855,65.926 Z M69.046,65.92597 L69.049906,65.92597 C67.776506,65.929907 66.631906,66.69944 66.155406,67.8791 C65.678846,69.0549 65.960096,70.4064 66.874156,71.2932 L75.725756,80.1448 C76.307786,80.75027 77.108556,81.09792 77.948456,81.1058764 C78.788296,81.113552 79.596856,80.78543 80.190656,80.19168 C80.784456,79.59793 81.112536,78.78938 81.1048527,77.94948 C81.096903,77.10964 80.749246,76.30888 80.143776,75.72678 L71.292176,66.87128 C70.702336,66.26581 69.893776,65.92597 69.049976,65.92597 L69.046,65.92597 Z M46.952,75.0822 C45.2293,75.109544 43.8504,76.5236 43.8739,78.2502 L43.8739,90.7502 C43.862181,91.58614 44.1864,92.3947 44.77234,92.9885 C45.36218,93.58616 46.16294,93.91819 46.99894,93.91819 C47.83494,93.91819 48.63564,93.58616 49.22554,92.9885 C49.81148,92.39475 50.1357,91.5862 50.12398,90.7502 L50.12398,78.2502 C50.135699,77.40645 49.80367,76.594 49.20601,75.9963 C48.61226,75.39864 47.79581,75.07052 46.95211,75.08224 L46.952,75.0822 Z"></path>
        </g>
    </g>
</svg>